<mxfile host="Electron" modified="2025-07-30T10:58:11.743Z" agent="Mozilla/5.0 (Windows NT 10.0; Win64; x64) AppleWebKit/537.36 (KHTML, like Gecko) draw.io/24.5.1 Chrome/124.0.6367.207 Electron/30.0.6 Safari/537.36" etag="Z1txSZl-LjGycumKenSt" version="24.5.1" type="device">
  <diagram name="Page-1" id="vh-KV_kelh0cyXD_iiPr">
    <mxGraphModel dx="1091" dy="638" grid="1" gridSize="10" guides="1" tooltips="1" connect="1" arrows="1" fold="1" page="1" pageScale="1" pageWidth="850" pageHeight="1100" math="0" shadow="0">
      <root>
        <mxCell id="0" />
        <mxCell id="1" parent="0" />
        <mxCell id="0hHBp4bmBi5tu7N6j1TK-1" value="Teacher login" style="rounded=0;whiteSpace=wrap;html=1;" vertex="1" parent="1">
          <mxGeometry x="390" y="4" width="69" height="30" as="geometry" />
        </mxCell>
        <mxCell id="0hHBp4bmBi5tu7N6j1TK-2" value="" style="edgeStyle=orthogonalEdgeStyle;rounded=0;orthogonalLoop=1;jettySize=auto;html=1;" edge="1" parent="1" source="0hHBp4bmBi5tu7N6j1TK-3" target="0hHBp4bmBi5tu7N6j1TK-11">
          <mxGeometry relative="1" as="geometry" />
        </mxCell>
        <mxCell id="0hHBp4bmBi5tu7N6j1TK-3" value="Sucess?" style="rhombus;whiteSpace=wrap;html=1;rounded=0;" vertex="1" parent="1">
          <mxGeometry x="390" y="60" width="60" height="60" as="geometry" />
        </mxCell>
        <mxCell id="0hHBp4bmBi5tu7N6j1TK-4" value="" style="endArrow=classic;html=1;rounded=0;exitX=-0.016;exitY=0.94;exitDx=0;exitDy=0;entryX=0.649;entryY=1.004;entryDx=0;entryDy=0;entryPerimeter=0;exitPerimeter=0;" edge="1" parent="1" source="0hHBp4bmBi5tu7N6j1TK-5" target="0hHBp4bmBi5tu7N6j1TK-1">
          <mxGeometry width="50" height="50" relative="1" as="geometry">
            <mxPoint x="475" y="77.99999999999999" as="sourcePoint" />
            <mxPoint x="476.2660000000001" y="25.360000000000003" as="targetPoint" />
          </mxGeometry>
        </mxCell>
        <mxCell id="0hHBp4bmBi5tu7N6j1TK-5" value="no" style="text;html=1;align=center;verticalAlign=middle;resizable=0;points=[];autosize=1;strokeColor=none;fillColor=none;" vertex="1" parent="1">
          <mxGeometry x="435" y="48" width="40" height="30" as="geometry" />
        </mxCell>
        <mxCell id="0hHBp4bmBi5tu7N6j1TK-6" style="edgeStyle=orthogonalEdgeStyle;rounded=0;orthogonalLoop=1;jettySize=auto;html=1;exitX=0;exitY=0.25;exitDx=0;exitDy=0;entryX=0.5;entryY=0;entryDx=0;entryDy=0;" edge="1" parent="1" source="0hHBp4bmBi5tu7N6j1TK-11" target="0hHBp4bmBi5tu7N6j1TK-14">
          <mxGeometry relative="1" as="geometry" />
        </mxCell>
        <mxCell id="0hHBp4bmBi5tu7N6j1TK-7" style="edgeStyle=orthogonalEdgeStyle;rounded=0;orthogonalLoop=1;jettySize=auto;html=1;exitX=0;exitY=0.75;exitDx=0;exitDy=0;entryX=0.5;entryY=0;entryDx=0;entryDy=0;" edge="1" parent="1" source="0hHBp4bmBi5tu7N6j1TK-11" target="0hHBp4bmBi5tu7N6j1TK-15">
          <mxGeometry relative="1" as="geometry" />
        </mxCell>
        <mxCell id="0hHBp4bmBi5tu7N6j1TK-8" style="edgeStyle=orthogonalEdgeStyle;rounded=0;orthogonalLoop=1;jettySize=auto;html=1;exitX=0.5;exitY=1;exitDx=0;exitDy=0;" edge="1" parent="1" source="0hHBp4bmBi5tu7N6j1TK-11" target="0hHBp4bmBi5tu7N6j1TK-17">
          <mxGeometry relative="1" as="geometry" />
        </mxCell>
        <mxCell id="0hHBp4bmBi5tu7N6j1TK-9" style="edgeStyle=orthogonalEdgeStyle;rounded=0;orthogonalLoop=1;jettySize=auto;html=1;exitX=1;exitY=0.75;exitDx=0;exitDy=0;entryX=0.5;entryY=0;entryDx=0;entryDy=0;" edge="1" parent="1" source="0hHBp4bmBi5tu7N6j1TK-11" target="0hHBp4bmBi5tu7N6j1TK-19">
          <mxGeometry relative="1" as="geometry" />
        </mxCell>
        <mxCell id="0hHBp4bmBi5tu7N6j1TK-10" style="edgeStyle=orthogonalEdgeStyle;rounded=0;orthogonalLoop=1;jettySize=auto;html=1;exitX=0.987;exitY=1.065;exitDx=0;exitDy=0;entryX=0.5;entryY=0;entryDx=0;entryDy=0;exitPerimeter=0;" edge="1" parent="1" source="0hHBp4bmBi5tu7N6j1TK-12" target="0hHBp4bmBi5tu7N6j1TK-20">
          <mxGeometry relative="1" as="geometry" />
        </mxCell>
        <mxCell id="0hHBp4bmBi5tu7N6j1TK-82" style="edgeStyle=orthogonalEdgeStyle;rounded=0;orthogonalLoop=1;jettySize=auto;html=1;exitX=1;exitY=0.5;exitDx=0;exitDy=0;entryX=0.5;entryY=0;entryDx=0;entryDy=0;" edge="1" parent="1" source="0hHBp4bmBi5tu7N6j1TK-11" target="0hHBp4bmBi5tu7N6j1TK-81">
          <mxGeometry relative="1" as="geometry" />
        </mxCell>
        <mxCell id="0hHBp4bmBi5tu7N6j1TK-89" style="edgeStyle=orthogonalEdgeStyle;rounded=0;orthogonalLoop=1;jettySize=auto;html=1;exitX=1;exitY=0.25;exitDx=0;exitDy=0;entryX=0.5;entryY=0;entryDx=0;entryDy=0;" edge="1" parent="1" source="0hHBp4bmBi5tu7N6j1TK-11" target="0hHBp4bmBi5tu7N6j1TK-90">
          <mxGeometry relative="1" as="geometry">
            <mxPoint x="730" y="147.66666666666663" as="targetPoint" />
          </mxGeometry>
        </mxCell>
        <mxCell id="0hHBp4bmBi5tu7N6j1TK-11" value="&lt;div&gt;Teacher&lt;/div&gt;&lt;div&gt;dashboard&lt;/div&gt;" style="whiteSpace=wrap;html=1;rounded=0;" vertex="1" parent="1">
          <mxGeometry x="390" y="140" width="60" height="30" as="geometry" />
        </mxCell>
        <mxCell id="0hHBp4bmBi5tu7N6j1TK-12" value="yes" style="text;html=1;align=center;verticalAlign=middle;resizable=0;points=[];autosize=1;strokeColor=none;fillColor=none;" vertex="1" parent="1">
          <mxGeometry x="410" y="110" width="40" height="30" as="geometry" />
        </mxCell>
        <mxCell id="0hHBp4bmBi5tu7N6j1TK-13" value="" style="edgeStyle=orthogonalEdgeStyle;rounded=0;orthogonalLoop=1;jettySize=auto;html=1;" edge="1" parent="1" source="0hHBp4bmBi5tu7N6j1TK-14" target="0hHBp4bmBi5tu7N6j1TK-25">
          <mxGeometry relative="1" as="geometry" />
        </mxCell>
        <mxCell id="0hHBp4bmBi5tu7N6j1TK-14" value="&lt;div&gt;Attendence&lt;/div&gt;&lt;div&gt;management&lt;/div&gt;" style="rounded=0;whiteSpace=wrap;html=1;" vertex="1" parent="1">
          <mxGeometry x="60" y="190" width="80" height="30" as="geometry" />
        </mxCell>
        <mxCell id="0hHBp4bmBi5tu7N6j1TK-15" value="My class" style="rounded=0;whiteSpace=wrap;html=1;" vertex="1" parent="1">
          <mxGeometry x="250" y="190" width="80" height="30" as="geometry" />
        </mxCell>
        <mxCell id="0hHBp4bmBi5tu7N6j1TK-16" value="" style="edgeStyle=orthogonalEdgeStyle;rounded=0;orthogonalLoop=1;jettySize=auto;html=1;" edge="1" parent="1" source="0hHBp4bmBi5tu7N6j1TK-17" target="0hHBp4bmBi5tu7N6j1TK-57">
          <mxGeometry relative="1" as="geometry" />
        </mxCell>
        <mxCell id="0hHBp4bmBi5tu7N6j1TK-17" value="&lt;div&gt;Materials&lt;/div&gt;&lt;div&gt;management&lt;/div&gt;" style="rounded=0;whiteSpace=wrap;html=1;" vertex="1" parent="1">
          <mxGeometry x="380" y="190" width="80" height="30" as="geometry" />
        </mxCell>
        <mxCell id="0hHBp4bmBi5tu7N6j1TK-18" value="" style="edgeStyle=orthogonalEdgeStyle;rounded=0;orthogonalLoop=1;jettySize=auto;html=1;" edge="1" parent="1" source="0hHBp4bmBi5tu7N6j1TK-19" target="0hHBp4bmBi5tu7N6j1TK-62">
          <mxGeometry relative="1" as="geometry" />
        </mxCell>
        <mxCell id="0hHBp4bmBi5tu7N6j1TK-19" value="Assignment&lt;div&gt;management&lt;/div&gt;" style="rounded=0;whiteSpace=wrap;html=1;" vertex="1" parent="1">
          <mxGeometry x="490" y="190" width="80" height="30" as="geometry" />
        </mxCell>
        <mxCell id="0hHBp4bmBi5tu7N6j1TK-20" value="Logout" style="rounded=0;whiteSpace=wrap;html=1;" vertex="1" parent="1">
          <mxGeometry x="767" y="190" width="80" height="30" as="geometry" />
        </mxCell>
        <mxCell id="0hHBp4bmBi5tu7N6j1TK-21" value="" style="endArrow=classic;html=1;rounded=0;entryX=0;entryY=0;entryDx=0;entryDy=0;exitX=0.213;exitY=1.004;exitDx=0;exitDy=0;exitPerimeter=0;" edge="1" parent="1" source="0hHBp4bmBi5tu7N6j1TK-1" target="0hHBp4bmBi5tu7N6j1TK-3">
          <mxGeometry width="50" height="50" relative="1" as="geometry">
            <mxPoint x="370" y="60" as="sourcePoint" />
            <mxPoint x="420" y="10" as="targetPoint" />
          </mxGeometry>
        </mxCell>
        <mxCell id="0hHBp4bmBi5tu7N6j1TK-22" style="edgeStyle=orthogonalEdgeStyle;rounded=0;orthogonalLoop=1;jettySize=auto;html=1;exitX=0;exitY=1;exitDx=0;exitDy=0;entryX=0.315;entryY=0.069;entryDx=0;entryDy=0;entryPerimeter=0;" edge="1" parent="1" source="0hHBp4bmBi5tu7N6j1TK-25" target="0hHBp4bmBi5tu7N6j1TK-28">
          <mxGeometry relative="1" as="geometry">
            <mxPoint x="40" y="320" as="targetPoint" />
            <Array as="points">
              <mxPoint x="40" y="300" />
              <mxPoint x="40" y="333" />
            </Array>
          </mxGeometry>
        </mxCell>
        <mxCell id="0hHBp4bmBi5tu7N6j1TK-23" style="edgeStyle=orthogonalEdgeStyle;rounded=0;orthogonalLoop=1;jettySize=auto;html=1;exitX=0.5;exitY=1;exitDx=0;exitDy=0;entryX=0.5;entryY=0;entryDx=0;entryDy=0;" edge="1" parent="1" source="0hHBp4bmBi5tu7N6j1TK-25" target="0hHBp4bmBi5tu7N6j1TK-37">
          <mxGeometry relative="1" as="geometry">
            <mxPoint x="130" y="360" as="targetPoint" />
            <Array as="points">
              <mxPoint x="100" y="340" />
              <mxPoint x="130" y="340" />
            </Array>
          </mxGeometry>
        </mxCell>
        <mxCell id="0hHBp4bmBi5tu7N6j1TK-24" style="edgeStyle=orthogonalEdgeStyle;rounded=0;orthogonalLoop=1;jettySize=auto;html=1;exitX=1;exitY=1;exitDx=0;exitDy=0;entryX=0.25;entryY=0;entryDx=0;entryDy=0;" edge="1" parent="1" source="0hHBp4bmBi5tu7N6j1TK-25" target="0hHBp4bmBi5tu7N6j1TK-43">
          <mxGeometry relative="1" as="geometry">
            <mxPoint x="200" y="350" as="targetPoint" />
          </mxGeometry>
        </mxCell>
        <mxCell id="0hHBp4bmBi5tu7N6j1TK-25" value="methods" style="rhombus;whiteSpace=wrap;html=1;rounded=0;" vertex="1" parent="1">
          <mxGeometry x="60" y="240" width="80" height="80" as="geometry" />
        </mxCell>
        <mxCell id="0hHBp4bmBi5tu7N6j1TK-26" value="manual" style="text;html=1;align=center;verticalAlign=middle;resizable=0;points=[];autosize=1;strokeColor=none;fillColor=none;" vertex="1" parent="1">
          <mxGeometry x="13" y="278" width="60" height="30" as="geometry" />
        </mxCell>
        <mxCell id="0hHBp4bmBi5tu7N6j1TK-27" value="" style="edgeStyle=orthogonalEdgeStyle;rounded=0;orthogonalLoop=1;jettySize=auto;html=1;" edge="1" parent="1" source="0hHBp4bmBi5tu7N6j1TK-28" target="0hHBp4bmBi5tu7N6j1TK-30">
          <mxGeometry relative="1" as="geometry" />
        </mxCell>
        <mxCell id="0hHBp4bmBi5tu7N6j1TK-28" value="manual&amp;nbsp;&lt;div&gt;attendence&lt;/div&gt;" style="rounded=0;whiteSpace=wrap;html=1;" vertex="1" parent="1">
          <mxGeometry x="3" y="350" width="80" height="40" as="geometry" />
        </mxCell>
        <mxCell id="0hHBp4bmBi5tu7N6j1TK-29" style="edgeStyle=orthogonalEdgeStyle;rounded=0;orthogonalLoop=1;jettySize=auto;html=1;exitX=0.5;exitY=1;exitDx=0;exitDy=0;entryX=0.5;entryY=0;entryDx=0;entryDy=0;" edge="1" parent="1" source="0hHBp4bmBi5tu7N6j1TK-30" target="0hHBp4bmBi5tu7N6j1TK-32">
          <mxGeometry relative="1" as="geometry" />
        </mxCell>
        <mxCell id="0hHBp4bmBi5tu7N6j1TK-30" value="Load student list" style="whiteSpace=wrap;html=1;rounded=0;" vertex="1" parent="1">
          <mxGeometry x="8" y="416" width="70" height="31" as="geometry" />
        </mxCell>
        <mxCell id="0hHBp4bmBi5tu7N6j1TK-31" style="edgeStyle=orthogonalEdgeStyle;rounded=0;orthogonalLoop=1;jettySize=auto;html=1;exitX=0.5;exitY=1;exitDx=0;exitDy=0;" edge="1" parent="1" source="0hHBp4bmBi5tu7N6j1TK-32" target="0hHBp4bmBi5tu7N6j1TK-34">
          <mxGeometry relative="1" as="geometry" />
        </mxCell>
        <mxCell id="0hHBp4bmBi5tu7N6j1TK-32" value="mark&lt;div&gt;attendence&lt;/div&gt;" style="whiteSpace=wrap;html=1;rounded=0;" vertex="1" parent="1">
          <mxGeometry x="8" y="470" width="70" height="31" as="geometry" />
        </mxCell>
        <mxCell id="0hHBp4bmBi5tu7N6j1TK-33" style="edgeStyle=orthogonalEdgeStyle;rounded=0;orthogonalLoop=1;jettySize=auto;html=1;exitX=0.5;exitY=1;exitDx=0;exitDy=0;entryX=0.5;entryY=0;entryDx=0;entryDy=0;" edge="1" parent="1" source="0hHBp4bmBi5tu7N6j1TK-34" target="0hHBp4bmBi5tu7N6j1TK-35">
          <mxGeometry relative="1" as="geometry" />
        </mxCell>
        <mxCell id="0hHBp4bmBi5tu7N6j1TK-34" value="Details" style="whiteSpace=wrap;html=1;rounded=0;" vertex="1" parent="1">
          <mxGeometry x="8" y="519" width="70" height="31" as="geometry" />
        </mxCell>
        <mxCell id="0hHBp4bmBi5tu7N6j1TK-35" value="Status" style="whiteSpace=wrap;html=1;rounded=0;" vertex="1" parent="1">
          <mxGeometry x="8" y="570" width="70" height="31" as="geometry" />
        </mxCell>
        <mxCell id="0hHBp4bmBi5tu7N6j1TK-36" style="edgeStyle=orthogonalEdgeStyle;rounded=0;orthogonalLoop=1;jettySize=auto;html=1;exitX=0.5;exitY=1;exitDx=0;exitDy=0;entryX=0.5;entryY=0;entryDx=0;entryDy=0;" edge="1" parent="1" source="0hHBp4bmBi5tu7N6j1TK-37" target="0hHBp4bmBi5tu7N6j1TK-39">
          <mxGeometry relative="1" as="geometry" />
        </mxCell>
        <mxCell id="0hHBp4bmBi5tu7N6j1TK-37" value="QR code&lt;div&gt;attetndence&lt;/div&gt;" style="rounded=0;whiteSpace=wrap;html=1;" vertex="1" parent="1">
          <mxGeometry x="90" y="350" width="80" height="40" as="geometry" />
        </mxCell>
        <mxCell id="0hHBp4bmBi5tu7N6j1TK-38" style="edgeStyle=orthogonalEdgeStyle;rounded=0;orthogonalLoop=1;jettySize=auto;html=1;exitX=0.5;exitY=1;exitDx=0;exitDy=0;entryX=0.5;entryY=0;entryDx=0;entryDy=0;" edge="1" parent="1" source="0hHBp4bmBi5tu7N6j1TK-39" target="0hHBp4bmBi5tu7N6j1TK-41">
          <mxGeometry relative="1" as="geometry" />
        </mxCell>
        <mxCell id="0hHBp4bmBi5tu7N6j1TK-39" value="Generate&lt;div&gt;QR code&lt;/div&gt;" style="whiteSpace=wrap;html=1;rounded=0;" vertex="1" parent="1">
          <mxGeometry x="95" y="416" width="70" height="31" as="geometry" />
        </mxCell>
        <mxCell id="0hHBp4bmBi5tu7N6j1TK-40" style="edgeStyle=orthogonalEdgeStyle;rounded=0;orthogonalLoop=1;jettySize=auto;html=1;exitX=0.5;exitY=1;exitDx=0;exitDy=0;entryX=0.5;entryY=0;entryDx=0;entryDy=0;" edge="1" parent="1" source="0hHBp4bmBi5tu7N6j1TK-41" target="0hHBp4bmBi5tu7N6j1TK-42">
          <mxGeometry relative="1" as="geometry" />
        </mxCell>
        <mxCell id="0hHBp4bmBi5tu7N6j1TK-41" value="Display" style="whiteSpace=wrap;html=1;rounded=0;" vertex="1" parent="1">
          <mxGeometry x="95" y="470" width="70" height="31" as="geometry" />
        </mxCell>
        <mxCell id="0hHBp4bmBi5tu7N6j1TK-70" style="edgeStyle=orthogonalEdgeStyle;rounded=0;orthogonalLoop=1;jettySize=auto;html=1;exitX=0.5;exitY=1;exitDx=0;exitDy=0;entryX=0.5;entryY=0;entryDx=0;entryDy=0;" edge="1" parent="1" source="0hHBp4bmBi5tu7N6j1TK-42" target="0hHBp4bmBi5tu7N6j1TK-69">
          <mxGeometry relative="1" as="geometry" />
        </mxCell>
        <mxCell id="0hHBp4bmBi5tu7N6j1TK-42" value="Mark attendence" style="whiteSpace=wrap;html=1;rounded=0;" vertex="1" parent="1">
          <mxGeometry x="95" y="519" width="70" height="31" as="geometry" />
        </mxCell>
        <mxCell id="0hHBp4bmBi5tu7N6j1TK-43" value="&lt;div&gt;Attendence&lt;/div&gt;&lt;div&gt;statistics&lt;/div&gt;" style="rounded=0;whiteSpace=wrap;html=1;" vertex="1" parent="1">
          <mxGeometry x="180" y="350" width="80" height="40" as="geometry" />
        </mxCell>
        <mxCell id="0hHBp4bmBi5tu7N6j1TK-44" style="edgeStyle=orthogonalEdgeStyle;rounded=0;orthogonalLoop=1;jettySize=auto;html=1;exitX=0.5;exitY=1;exitDx=0;exitDy=0;entryX=0.5;entryY=0;entryDx=0;entryDy=0;" edge="1" parent="1" source="0hHBp4bmBi5tu7N6j1TK-45" target="0hHBp4bmBi5tu7N6j1TK-48">
          <mxGeometry relative="1" as="geometry">
            <mxPoint x="215" y="470" as="targetPoint" />
          </mxGeometry>
        </mxCell>
        <mxCell id="0hHBp4bmBi5tu7N6j1TK-45" value="View" style="whiteSpace=wrap;html=1;rounded=0;" vertex="1" parent="1">
          <mxGeometry x="180" y="416" width="70" height="31" as="geometry" />
        </mxCell>
        <mxCell id="0hHBp4bmBi5tu7N6j1TK-46" style="edgeStyle=orthogonalEdgeStyle;rounded=0;orthogonalLoop=1;jettySize=auto;html=1;exitX=0.5;exitY=1;exitDx=0;exitDy=0;entryX=0.602;entryY=0.008;entryDx=0;entryDy=0;entryPerimeter=0;" edge="1" parent="1" source="0hHBp4bmBi5tu7N6j1TK-43" target="0hHBp4bmBi5tu7N6j1TK-45">
          <mxGeometry relative="1" as="geometry" />
        </mxCell>
        <mxCell id="0hHBp4bmBi5tu7N6j1TK-47" value="" style="edgeStyle=orthogonalEdgeStyle;rounded=0;orthogonalLoop=1;jettySize=auto;html=1;" edge="1" parent="1" source="0hHBp4bmBi5tu7N6j1TK-48" target="0hHBp4bmBi5tu7N6j1TK-49">
          <mxGeometry relative="1" as="geometry" />
        </mxCell>
        <mxCell id="0hHBp4bmBi5tu7N6j1TK-48" value="Generate" style="whiteSpace=wrap;html=1;rounded=0;" vertex="1" parent="1">
          <mxGeometry x="180" y="470" width="70" height="31" as="geometry" />
        </mxCell>
        <mxCell id="0hHBp4bmBi5tu7N6j1TK-49" value="Edit" style="whiteSpace=wrap;html=1;rounded=0;" vertex="1" parent="1">
          <mxGeometry x="180" y="519" width="70" height="31" as="geometry" />
        </mxCell>
        <mxCell id="0hHBp4bmBi5tu7N6j1TK-50" value="" style="edgeStyle=orthogonalEdgeStyle;rounded=0;orthogonalLoop=1;jettySize=auto;html=1;" edge="1" parent="1" source="0hHBp4bmBi5tu7N6j1TK-51" target="0hHBp4bmBi5tu7N6j1TK-54">
          <mxGeometry relative="1" as="geometry" />
        </mxCell>
        <mxCell id="0hHBp4bmBi5tu7N6j1TK-51" value="Assigned&lt;div&gt;subjects&lt;/div&gt;" style="whiteSpace=wrap;html=1;rounded=0;" vertex="1" parent="1">
          <mxGeometry x="270" y="247" width="70" height="31" as="geometry" />
        </mxCell>
        <mxCell id="0hHBp4bmBi5tu7N6j1TK-53" value="" style="edgeStyle=orthogonalEdgeStyle;rounded=0;orthogonalLoop=1;jettySize=auto;html=1;" edge="1" parent="1" source="0hHBp4bmBi5tu7N6j1TK-54" target="0hHBp4bmBi5tu7N6j1TK-55">
          <mxGeometry relative="1" as="geometry" />
        </mxCell>
        <mxCell id="0hHBp4bmBi5tu7N6j1TK-54" value="View&lt;div&gt;students&lt;/div&gt;" style="whiteSpace=wrap;html=1;rounded=0;" vertex="1" parent="1">
          <mxGeometry x="270" y="300" width="70" height="31" as="geometry" />
        </mxCell>
        <mxCell id="0hHBp4bmBi5tu7N6j1TK-55" value="Assignments" style="whiteSpace=wrap;html=1;rounded=0;" vertex="1" parent="1">
          <mxGeometry x="270" y="359" width="70" height="31" as="geometry" />
        </mxCell>
        <mxCell id="0hHBp4bmBi5tu7N6j1TK-56" value="" style="edgeStyle=orthogonalEdgeStyle;rounded=0;orthogonalLoop=1;jettySize=auto;html=1;" edge="1" parent="1" source="0hHBp4bmBi5tu7N6j1TK-57" target="0hHBp4bmBi5tu7N6j1TK-59">
          <mxGeometry relative="1" as="geometry" />
        </mxCell>
        <mxCell id="0hHBp4bmBi5tu7N6j1TK-57" value="Upload" style="rounded=0;whiteSpace=wrap;html=1;" vertex="1" parent="1">
          <mxGeometry x="380" y="247" width="80" height="30" as="geometry" />
        </mxCell>
        <mxCell id="0hHBp4bmBi5tu7N6j1TK-58" value="" style="edgeStyle=orthogonalEdgeStyle;rounded=0;orthogonalLoop=1;jettySize=auto;html=1;" edge="1" parent="1" source="0hHBp4bmBi5tu7N6j1TK-59" target="0hHBp4bmBi5tu7N6j1TK-60">
          <mxGeometry relative="1" as="geometry" />
        </mxCell>
        <mxCell id="0hHBp4bmBi5tu7N6j1TK-59" value="View" style="rounded=0;whiteSpace=wrap;html=1;" vertex="1" parent="1">
          <mxGeometry x="380" y="301" width="80" height="30" as="geometry" />
        </mxCell>
        <mxCell id="0hHBp4bmBi5tu7N6j1TK-60" value="Assign&amp;nbsp;" style="rounded=0;whiteSpace=wrap;html=1;" vertex="1" parent="1">
          <mxGeometry x="380" y="360" width="80" height="30" as="geometry" />
        </mxCell>
        <mxCell id="0hHBp4bmBi5tu7N6j1TK-78" style="edgeStyle=orthogonalEdgeStyle;rounded=0;orthogonalLoop=1;jettySize=auto;html=1;exitX=0.5;exitY=1;exitDx=0;exitDy=0;" edge="1" parent="1" source="0hHBp4bmBi5tu7N6j1TK-62" target="0hHBp4bmBi5tu7N6j1TK-77">
          <mxGeometry relative="1" as="geometry" />
        </mxCell>
        <mxCell id="0hHBp4bmBi5tu7N6j1TK-62" value="Add/edit" style="rounded=0;whiteSpace=wrap;html=1;" vertex="1" parent="1">
          <mxGeometry x="490" y="247.5" width="80" height="30" as="geometry" />
        </mxCell>
        <mxCell id="0hHBp4bmBi5tu7N6j1TK-68" value="QR code" style="text;html=1;align=center;verticalAlign=middle;resizable=0;points=[];autosize=1;strokeColor=none;fillColor=none;" vertex="1" parent="1">
          <mxGeometry x="95" y="318" width="70" height="30" as="geometry" />
        </mxCell>
        <mxCell id="0hHBp4bmBi5tu7N6j1TK-69" value="Status" style="whiteSpace=wrap;html=1;rounded=0;" vertex="1" parent="1">
          <mxGeometry x="90" y="570" width="70" height="31" as="geometry" />
        </mxCell>
        <mxCell id="0hHBp4bmBi5tu7N6j1TK-73" value="reports" style="text;html=1;align=center;verticalAlign=middle;resizable=0;points=[];autosize=1;strokeColor=none;fillColor=none;" vertex="1" parent="1">
          <mxGeometry x="147" y="276" width="60" height="30" as="geometry" />
        </mxCell>
        <mxCell id="0hHBp4bmBi5tu7N6j1TK-74" style="edgeStyle=orthogonalEdgeStyle;rounded=0;orthogonalLoop=1;jettySize=auto;html=1;exitX=0.75;exitY=1;exitDx=0;exitDy=0;entryX=0.569;entryY=0.097;entryDx=0;entryDy=0;entryPerimeter=0;" edge="1" parent="1" source="0hHBp4bmBi5tu7N6j1TK-15" target="0hHBp4bmBi5tu7N6j1TK-51">
          <mxGeometry relative="1" as="geometry" />
        </mxCell>
        <mxCell id="0hHBp4bmBi5tu7N6j1TK-80" value="" style="edgeStyle=orthogonalEdgeStyle;rounded=0;orthogonalLoop=1;jettySize=auto;html=1;" edge="1" parent="1" source="0hHBp4bmBi5tu7N6j1TK-77" target="0hHBp4bmBi5tu7N6j1TK-79">
          <mxGeometry relative="1" as="geometry" />
        </mxCell>
        <mxCell id="0hHBp4bmBi5tu7N6j1TK-77" value="Assignments&lt;div&gt;statistics&lt;/div&gt;" style="rounded=0;whiteSpace=wrap;html=1;" vertex="1" parent="1">
          <mxGeometry x="490" y="300" width="80" height="30" as="geometry" />
        </mxCell>
        <mxCell id="0hHBp4bmBi5tu7N6j1TK-79" value="Submit&lt;div&gt;details&lt;/div&gt;" style="rounded=0;whiteSpace=wrap;html=1;" vertex="1" parent="1">
          <mxGeometry x="490" y="359.5" width="80" height="30" as="geometry" />
        </mxCell>
        <mxCell id="0hHBp4bmBi5tu7N6j1TK-84" value="" style="edgeStyle=orthogonalEdgeStyle;rounded=0;orthogonalLoop=1;jettySize=auto;html=1;" edge="1" parent="1" source="0hHBp4bmBi5tu7N6j1TK-81" target="0hHBp4bmBi5tu7N6j1TK-83">
          <mxGeometry relative="1" as="geometry" />
        </mxCell>
        <mxCell id="0hHBp4bmBi5tu7N6j1TK-81" value="Students&lt;div&gt;records&lt;/div&gt;" style="rounded=0;whiteSpace=wrap;html=1;" vertex="1" parent="1">
          <mxGeometry x="600" y="190" width="80" height="30" as="geometry" />
        </mxCell>
        <mxCell id="0hHBp4bmBi5tu7N6j1TK-86" value="" style="edgeStyle=orthogonalEdgeStyle;rounded=0;orthogonalLoop=1;jettySize=auto;html=1;" edge="1" parent="1" source="0hHBp4bmBi5tu7N6j1TK-83" target="0hHBp4bmBi5tu7N6j1TK-85">
          <mxGeometry relative="1" as="geometry" />
        </mxCell>
        <mxCell id="0hHBp4bmBi5tu7N6j1TK-83" value="Subjects" style="rounded=0;whiteSpace=wrap;html=1;" vertex="1" parent="1">
          <mxGeometry x="600" y="247.5" width="80" height="30" as="geometry" />
        </mxCell>
        <mxCell id="0hHBp4bmBi5tu7N6j1TK-88" value="" style="edgeStyle=orthogonalEdgeStyle;rounded=0;orthogonalLoop=1;jettySize=auto;html=1;" edge="1" parent="1" source="0hHBp4bmBi5tu7N6j1TK-85" target="0hHBp4bmBi5tu7N6j1TK-87">
          <mxGeometry relative="1" as="geometry" />
        </mxCell>
        <mxCell id="0hHBp4bmBi5tu7N6j1TK-85" value="Attendence" style="rounded=0;whiteSpace=wrap;html=1;" vertex="1" parent="1">
          <mxGeometry x="600" y="301.5" width="80" height="30" as="geometry" />
        </mxCell>
        <mxCell id="0hHBp4bmBi5tu7N6j1TK-87" value="Assignments" style="rounded=0;whiteSpace=wrap;html=1;" vertex="1" parent="1">
          <mxGeometry x="600" y="360" width="80" height="30" as="geometry" />
        </mxCell>
        <mxCell id="0hHBp4bmBi5tu7N6j1TK-92" value="" style="edgeStyle=orthogonalEdgeStyle;rounded=0;orthogonalLoop=1;jettySize=auto;html=1;" edge="1" parent="1" source="0hHBp4bmBi5tu7N6j1TK-90" target="0hHBp4bmBi5tu7N6j1TK-91">
          <mxGeometry relative="1" as="geometry" />
        </mxCell>
        <mxCell id="0hHBp4bmBi5tu7N6j1TK-90" value="Profile" style="rounded=0;whiteSpace=wrap;html=1;" vertex="1" parent="1">
          <mxGeometry x="687" y="190" width="73" height="30" as="geometry" />
        </mxCell>
        <mxCell id="0hHBp4bmBi5tu7N6j1TK-94" value="" style="edgeStyle=orthogonalEdgeStyle;rounded=0;orthogonalLoop=1;jettySize=auto;html=1;" edge="1" parent="1" source="0hHBp4bmBi5tu7N6j1TK-91" target="0hHBp4bmBi5tu7N6j1TK-93">
          <mxGeometry relative="1" as="geometry" />
        </mxCell>
        <mxCell id="0hHBp4bmBi5tu7N6j1TK-91" value="Add/edit" style="rounded=0;whiteSpace=wrap;html=1;" vertex="1" parent="1">
          <mxGeometry x="687" y="248" width="73" height="30" as="geometry" />
        </mxCell>
        <mxCell id="0hHBp4bmBi5tu7N6j1TK-96" value="" style="edgeStyle=orthogonalEdgeStyle;rounded=0;orthogonalLoop=1;jettySize=auto;html=1;" edge="1" parent="1" source="0hHBp4bmBi5tu7N6j1TK-93" target="0hHBp4bmBi5tu7N6j1TK-95">
          <mxGeometry relative="1" as="geometry" />
        </mxCell>
        <mxCell id="0hHBp4bmBi5tu7N6j1TK-93" value="Personal&amp;nbsp;&lt;div&gt;details&lt;/div&gt;" style="rounded=0;whiteSpace=wrap;html=1;" vertex="1" parent="1">
          <mxGeometry x="687" y="301" width="73" height="30" as="geometry" />
        </mxCell>
        <mxCell id="0hHBp4bmBi5tu7N6j1TK-95" value="Upload&lt;div&gt;photo&lt;/div&gt;" style="rounded=0;whiteSpace=wrap;html=1;" vertex="1" parent="1">
          <mxGeometry x="687" y="359" width="73" height="30" as="geometry" />
        </mxCell>
      </root>
    </mxGraphModel>
  </diagram>
</mxfile>
